<mxfile host="app.diagrams.net" agent="Mozilla/5.0 (Windows NT 10.0; Win64; x64) AppleWebKit/537.36 (KHTML, like Gecko) Chrome/130.0.0.0 Safari/537.36" version="24.8.6" pages="2">
  <diagram name="Page-1" id="jJHcL2_iYt5m6baOWf9H">
    <mxGraphModel dx="1050" dy="522" grid="1" gridSize="10" guides="1" tooltips="1" connect="1" arrows="1" fold="1" page="1" pageScale="1" pageWidth="827" pageHeight="1169" math="0" shadow="0">
      <root>
        <mxCell id="0" />
        <mxCell id="1" parent="0" />
        <mxCell id="gA3qe5BLo0m5heG2OYdW-1" value="&lt;p style=&quot;line-height: 120%;&quot;&gt;&lt;/p&gt;&lt;div style=&quot;padding-bottom: 5px;&quot;&gt;&lt;font color=&quot;#0000ff&quot; face=&quot;Lucida Console&quot; style=&quot;font-size: 21px;&quot;&gt;Gramática de An. St. Ascendente&lt;/font&gt;&lt;/div&gt;&lt;font color=&quot;#0000ff&quot; face=&quot;Lucida Console&quot; style=&quot;font-size: 18px;&quot;&gt;Estructura del programa&lt;/font&gt;&lt;div style=&quot;text-align: left; font-size: 16px; padding-top: 5px; padding-bottom: 0px; margin-top: 0px;&quot;&gt;&lt;font style=&quot;font-size: 16px;&quot;&gt;&lt;font face=&quot;Lucida Console&quot; style=&quot;font-size: 16px;&quot;&gt;&lt;font color=&quot;#ff0080&quot;&gt;1 : &lt;/font&gt;P&amp;nbsp;&lt;/font&gt;&lt;span style=&quot;background-color: initial;&quot;&gt;&lt;font face=&quot;Lucida Console&quot; style=&quot;font-size: 16px;&quot;&gt;→ BP&lt;/font&gt;&lt;/span&gt;&lt;/font&gt;&lt;/div&gt;&lt;div style=&quot;text-align: left; font-size: 16px;&quot;&gt;&lt;font style=&quot;font-size: 16px;&quot;&gt;&lt;span style=&quot;background-color: initial;&quot;&gt;&lt;font face=&quot;Lucida Console&quot; style=&quot;font-size: 16px;&quot;&gt;&lt;font color=&quot;#ff0080&quot;&gt;2 :&lt;/font&gt; P&amp;nbsp;&lt;/font&gt;&lt;/span&gt;&lt;span style=&quot;background-color: initial;&quot;&gt;&lt;font face=&quot;Lucida Console&quot; style=&quot;font-size: 16px;&quot;&gt;→ FP&lt;/font&gt;&lt;/span&gt;&lt;/font&gt;&lt;/div&gt;&lt;div style=&quot;text-align: left; font-size: 16px; margin-bottom: 5px;&quot;&gt;&lt;font style=&quot;font-size: 16px;&quot;&gt;&lt;span style=&quot;background-color: initial;&quot;&gt;&lt;font face=&quot;Lucida Console&quot; style=&quot;font-size: 16px;&quot;&gt;&lt;font color=&quot;#ff0080&quot;&gt;3 :&lt;/font&gt; P&amp;nbsp;&lt;/font&gt;&lt;/span&gt;&lt;span style=&quot;background-color: initial;&quot;&gt;&lt;font face=&quot;Lucida Console&quot; style=&quot;font-size: 16px;&quot;&gt;→ eof&lt;/font&gt;&lt;/span&gt;&lt;/font&gt;&lt;/div&gt;&lt;div style=&quot;padding-top: 5px; padding-bottom: 5px;&quot;&gt;&lt;span style=&quot;background-color: initial;&quot;&gt;&lt;font color=&quot;#0000ff&quot; face=&quot;Lucida Console&quot; style=&quot;font-size: 18px;&quot;&gt;Sentencias Compuestas&lt;/font&gt;&lt;/span&gt;&lt;/div&gt;&lt;div style=&quot;text-align: left; font-size: 16px;&quot;&gt;&lt;font style=&quot;font-size: 16px;&quot;&gt;&lt;span style=&quot;background-color: initial;&quot;&gt;&lt;font face=&quot;Lucida Console&quot; style=&quot;font-size: 16px;&quot;&gt;&lt;font color=&quot;#ff0080&quot;&gt;4 : &lt;/font&gt;B&amp;nbsp;&lt;/font&gt;&lt;/span&gt;&lt;span style=&quot;background-color: initial;&quot;&gt;&lt;font face=&quot;Lucida Console&quot; style=&quot;font-size: 16px;&quot;&gt;→ var T id ;&lt;/font&gt;&lt;/span&gt;&lt;/font&gt;&lt;/div&gt;&lt;div style=&quot;text-align: left; font-size: 16px;&quot;&gt;&lt;font style=&quot;font-size: 16px;&quot;&gt;&lt;span style=&quot;background-color: initial;&quot;&gt;&lt;font face=&quot;Lucida Console&quot; style=&quot;font-size: 16px;&quot;&gt;&lt;font color=&quot;#ff0080&quot;&gt;5 : &lt;/font&gt;B&amp;nbsp;&lt;/font&gt;&lt;/span&gt;&lt;span style=&quot;background-color: initial;&quot;&gt;&lt;font face=&quot;Lucida Console&quot; style=&quot;font-size: 16px;&quot;&gt;→ if ( E ) { B } I&lt;/font&gt;&lt;/span&gt;&lt;/font&gt;&lt;/div&gt;&lt;div style=&quot;text-align: left; font-size: 16px;&quot;&gt;&lt;font style=&quot;font-size: 16px;&quot;&gt;&lt;span style=&quot;background-color: initial;&quot;&gt;&lt;font face=&quot;Lucida Console&quot; style=&quot;font-size: 16px;&quot;&gt;&lt;font color=&quot;#ff0080&quot;&gt;6 :&lt;/font&gt; B&lt;/font&gt;&lt;/span&gt;&lt;span style=&quot;background-color: initial;&quot;&gt;&lt;font style=&quot;font-size: 16px;&quot; face=&quot;Lucida Console&quot;&gt;&amp;nbsp;→ if ( E ) S&lt;/font&gt;&lt;/span&gt;&lt;/font&gt;&lt;/div&gt;&lt;div style=&quot;text-align: left; font-size: 16px;&quot;&gt;&lt;font style=&quot;font-size: 16px;&quot;&gt;&lt;span style=&quot;background-color: initial;&quot;&gt;&lt;font face=&quot;Lucida Console&quot; style=&quot;font-size: 16px;&quot;&gt;&lt;font color=&quot;#ff0080&quot;&gt;7 : &lt;/font&gt;B&amp;nbsp;&lt;/font&gt;&lt;/span&gt;&lt;span style=&quot;background-color: initial;&quot;&gt;&lt;font face=&quot;Lucida Console&quot; style=&quot;font-size: 16px;&quot;&gt;→ S&lt;/font&gt;&lt;/span&gt;&lt;/font&gt;&lt;/div&gt;&lt;div style=&quot;text-align: left; font-size: 16px;&quot;&gt;&lt;font style=&quot;font-size: 16px;&quot;&gt;&lt;span style=&quot;background-color: initial;&quot;&gt;&lt;font face=&quot;Lucida Console&quot; style=&quot;font-size: 16px;&quot;&gt;&lt;font color=&quot;#ff0080&quot;&gt;8: &lt;/font&gt;F&amp;nbsp;&lt;/font&gt;&lt;/span&gt;&lt;span style=&quot;background-color: initial;&quot;&gt;&lt;font face=&quot;Lucida Console&quot; style=&quot;font-size: 16px;&quot;&gt;→ function F1 F2 F3 { C }&lt;/font&gt;&lt;/span&gt;&lt;/font&gt;&lt;/div&gt;&lt;div style=&quot;text-align: left; font-size: 16px;&quot;&gt;&lt;font style=&quot;font-size: 16px;&quot;&gt;&lt;span style=&quot;background-color: initial;&quot;&gt;&lt;font face=&quot;Lucida Console&quot; style=&quot;font-size: 16px;&quot;&gt;&lt;font color=&quot;#ff0080&quot;&gt;9 : &lt;/font&gt;F1&lt;/font&gt;&lt;/span&gt;&lt;span style=&quot;background-color: initial;&quot;&gt;&lt;font style=&quot;font-size: 16px;&quot; face=&quot;Lucida Console&quot;&gt;&amp;nbsp;→ H&lt;/font&gt;&lt;/span&gt;&lt;/font&gt;&lt;/div&gt;&lt;div style=&quot;text-align: left; font-size: 16px;&quot;&gt;&lt;font style=&quot;font-size: 16px;&quot;&gt;&lt;span style=&quot;background-color: initial;&quot;&gt;&lt;font style=&quot;font-size: 16px;&quot; face=&quot;Lucida Console&quot;&gt;&lt;font color=&quot;#ff0080&quot;&gt;10 : &lt;/font&gt;F2&lt;/font&gt;&lt;/span&gt;&lt;span style=&quot;background-color: initial;&quot;&gt;&lt;font style=&quot;font-size: 16px;&quot; face=&quot;Lucida Console&quot;&gt;&amp;nbsp;→ id&lt;/font&gt;&lt;/span&gt;&lt;/font&gt;&lt;/div&gt;&lt;div style=&quot;text-align: left; font-size: 16px;&quot;&gt;&lt;font style=&quot;font-size: 16px;&quot;&gt;&lt;span style=&quot;background-color: initial;&quot;&gt;&lt;font style=&quot;font-size: 16px;&quot; face=&quot;Lucida Console&quot;&gt;&lt;font color=&quot;#ff0080&quot;&gt;11 : &lt;/font&gt;F3&lt;/font&gt;&lt;/span&gt;&lt;span style=&quot;background-color: initial;&quot;&gt;&lt;font style=&quot;font-size: 16px;&quot; face=&quot;Lucida Console&quot;&gt;&amp;nbsp;→ ( A )&lt;/font&gt;&lt;/span&gt;&lt;/font&gt;&lt;/div&gt;&lt;div style=&quot;text-align: left; font-size: 16px;&quot;&gt;&lt;font style=&quot;font-size: 16px;&quot;&gt;&lt;span style=&quot;background-color: initial;&quot;&gt;&lt;font face=&quot;Lucida Console&quot; style=&quot;font-size: 16px;&quot;&gt;&lt;font color=&quot;#ff0080&quot;&gt;12 : &lt;/font&gt;C&amp;nbsp;&lt;/font&gt;&lt;/span&gt;&lt;/font&gt;&lt;span style=&quot;font-family: &amp;quot;Lucida Console&amp;quot;; background-color: initial;&quot;&gt;→&amp;nbsp;&lt;/span&gt;&lt;span style=&quot;font-family: &amp;quot;Lucida Console&amp;quot;; background-color: initial;&quot;&gt;BC&lt;/span&gt;&lt;/div&gt;&lt;div style=&quot;text-align: left; font-size: 16px;&quot;&gt;&lt;span style=&quot;font-family: &amp;quot;Lucida Console&amp;quot;; background-color: initial;&quot;&gt;&lt;font color=&quot;#ff0080&quot;&gt;13 : &lt;/font&gt;C&amp;nbsp;&lt;/span&gt;&lt;span style=&quot;font-family: &amp;quot;Lucida Console&amp;quot;; background-color: initial;&quot;&gt;→&amp;nbsp;&lt;/span&gt;&lt;span style=&quot;font-family: &amp;quot;Lucida Console&amp;quot;; background-color: initial;&quot;&gt;λ&lt;/span&gt;&lt;/div&gt;&lt;div style=&quot;text-align: left; font-size: 16px;&quot;&gt;&lt;font style=&quot;font-size: 16px;&quot;&gt;&lt;span style=&quot;background-color: initial;&quot;&gt;&lt;font face=&quot;Lucida Console&quot; style=&quot;font-size: 16px;&quot;&gt;&lt;font color=&quot;#ff0080&quot;&gt;14 : &lt;/font&gt;H&lt;/font&gt;&lt;/span&gt;&lt;span style=&quot;background-color: initial;&quot;&gt;&lt;font face=&quot;Lucida Console&quot; style=&quot;font-size: 16px;&quot;&gt;&amp;nbsp;→ T&amp;nbsp;&lt;/font&gt;&lt;/span&gt;&lt;/font&gt;&lt;/div&gt;&lt;div style=&quot;text-align: left; font-size: 16px;&quot;&gt;&lt;span style=&quot;background-color: initial;&quot;&gt;&lt;font face=&quot;Lucida Console&quot;&gt;&lt;font color=&quot;#ff0080&quot;&gt;15 : &lt;/font&gt;H&lt;/font&gt;&lt;/span&gt;&lt;span style=&quot;background-color: initial;&quot;&gt;&lt;font face=&quot;Lucida Console&quot;&gt;&amp;nbsp;→&amp;nbsp;&lt;/font&gt;&lt;/span&gt;&lt;span style=&quot;font-family: &amp;quot;Lucida Console&amp;quot;; background-color: initial;&quot;&gt;void&lt;/span&gt;&lt;/div&gt;&lt;div style=&quot;text-align: left; font-size: 16px;&quot;&gt;&lt;font style=&quot;font-size: 16px;&quot;&gt;&lt;span style=&quot;background-color: initial;&quot;&gt;&lt;font face=&quot;Lucida Console&quot; style=&quot;font-size: 16px;&quot;&gt;&lt;font color=&quot;#ff0080&quot;&gt;16 : &lt;/font&gt;A&lt;/font&gt;&lt;/span&gt;&lt;span style=&quot;background-color: initial;&quot;&gt;&lt;font face=&quot;Lucida Console&quot; style=&quot;font-size: 16px;&quot;&gt;&amp;nbsp;→ T id K&amp;nbsp;&lt;/font&gt;&lt;/span&gt;&lt;/font&gt;&lt;/div&gt;&lt;div style=&quot;text-align: left; font-size: 16px;&quot;&gt;&lt;span style=&quot;background-color: initial;&quot;&gt;&lt;font face=&quot;Lucida Console&quot;&gt;&lt;font color=&quot;#ff0080&quot;&gt;17 : &lt;/font&gt;A&lt;/font&gt;&lt;/span&gt;&lt;span style=&quot;background-color: initial;&quot;&gt;&lt;font face=&quot;Lucida Console&quot;&gt;&amp;nbsp;→&amp;nbsp;&lt;/font&gt;&lt;/span&gt;&lt;span style=&quot;font-family: &amp;quot;Lucida Console&amp;quot;; background-color: initial;&quot;&gt;void&lt;/span&gt;&lt;/div&gt;&lt;div style=&quot;text-align: left; font-size: 16px;&quot;&gt;&lt;font style=&quot;font-size: 16px;&quot;&gt;&lt;span style=&quot;background-color: initial;&quot;&gt;&lt;font face=&quot;Lucida Console&quot; style=&quot;font-size: 16px;&quot;&gt;&lt;font color=&quot;#ff0080&quot;&gt;18 :&lt;/font&gt; K&lt;/font&gt;&lt;/span&gt;&lt;span style=&quot;background-color: initial;&quot;&gt;&lt;font face=&quot;Lucida Console&quot; style=&quot;font-size: 16px;&quot;&gt;&amp;nbsp;→ , T id K&lt;/font&gt;&lt;/span&gt;&lt;/font&gt;&lt;/div&gt;&lt;div style=&quot;text-align: left; font-size: 16px;&quot;&gt;&lt;span style=&quot;background-color: initial;&quot;&gt;&lt;font face=&quot;Lucida Console&quot;&gt;&lt;font color=&quot;#ff0080&quot;&gt;19 : &lt;/font&gt;K&lt;/font&gt;&lt;/span&gt;&lt;span style=&quot;background-color: initial;&quot;&gt;&lt;font face=&quot;Lucida Console&quot;&gt;&amp;nbsp;→&amp;nbsp;&lt;/font&gt;&lt;/span&gt;&lt;span style=&quot;font-family: &amp;quot;Lucida Console&amp;quot;; background-color: initial;&quot;&gt;λ&lt;/span&gt;&lt;/div&gt;&lt;div style=&quot;text-align: left; font-size: 16px;&quot;&gt;&lt;font style=&quot;font-size: 16px;&quot;&gt;&lt;span style=&quot;background-color: initial;&quot;&gt;&lt;font face=&quot;Lucida Console&quot; style=&quot;font-size: 16px;&quot;&gt;&lt;font color=&quot;#ff0080&quot;&gt;20 : &lt;/font&gt;I&amp;nbsp;&lt;/font&gt;&lt;/span&gt;&lt;span style=&quot;background-color: initial;&quot;&gt;&lt;font face=&quot;Lucida Console&quot; style=&quot;font-size: 16px;&quot;&gt;→ else { C }&lt;/font&gt;&lt;/span&gt;&lt;/font&gt;&lt;/div&gt;&lt;div style=&quot;text-align: left; font-size: 16px;&quot;&gt;&lt;span style=&quot;background-color: initial;&quot;&gt;&lt;font face=&quot;Lucida Console&quot;&gt;&lt;font color=&quot;#ff0080&quot;&gt;21 : &lt;/font&gt;I&amp;nbsp;&lt;/font&gt;&lt;/span&gt;&lt;span style=&quot;background-color: initial;&quot;&gt;&lt;font face=&quot;Lucida Console&quot;&gt;→&amp;nbsp;&lt;/font&gt;&lt;/span&gt;&lt;span style=&quot;font-family: &amp;quot;Lucida Console&amp;quot;; background-color: initial;&quot;&gt;λ&lt;/span&gt;&lt;/div&gt;&lt;div style=&quot;text-align: left; font-size: 16px;&quot;&gt;&lt;font style=&quot;font-size: 16px;&quot;&gt;&lt;span style=&quot;background-color: initial;&quot;&gt;&lt;font face=&quot;Lucida Console&quot; style=&quot;font-size: 16px;&quot;&gt;&lt;font color=&quot;#ff0080&quot;&gt;22 : &lt;/font&gt;T&amp;nbsp;&lt;/font&gt;&lt;/span&gt;&lt;span style=&quot;background-color: initial;&quot;&gt;&lt;font face=&quot;Lucida Console&quot; style=&quot;font-size: 16px;&quot;&gt;→ int&amp;nbsp;&lt;/font&gt;&lt;/span&gt;&lt;/font&gt;&lt;/div&gt;&lt;div style=&quot;text-align: left; font-size: 16px;&quot;&gt;&lt;font style=&quot;font-size: 16px;&quot;&gt;&lt;span style=&quot;background-color: initial;&quot;&gt;&lt;font face=&quot;Lucida Console&quot;&gt;&lt;font color=&quot;#ff0080&quot;&gt;23 : &lt;/font&gt;T&amp;nbsp;&lt;/font&gt;&lt;/span&gt;&lt;span style=&quot;background-color: initial;&quot;&gt;&lt;font face=&quot;Lucida Console&quot;&gt;→&amp;nbsp;&lt;/font&gt;&lt;/span&gt;&lt;/font&gt;&lt;span style=&quot;font-family: &amp;quot;Lucida Console&amp;quot;; background-color: initial;&quot;&gt;boolean&lt;/span&gt;&lt;span style=&quot;font-family: &amp;quot;Lucida Console&amp;quot;; background-color: initial;&quot;&gt;&amp;nbsp;&lt;/span&gt;&lt;/div&gt;&lt;div style=&quot;text-align: left; font-size: 16px;&quot;&gt;&lt;font style=&quot;font-size: 16px;&quot;&gt;&lt;span style=&quot;background-color: initial;&quot;&gt;&lt;font face=&quot;Lucida Console&quot;&gt;&lt;font color=&quot;#ff0080&quot;&gt;24 :&lt;/font&gt; T&amp;nbsp;&lt;/font&gt;&lt;/span&gt;&lt;span style=&quot;background-color: initial;&quot;&gt;&lt;font face=&quot;Lucida Console&quot;&gt;→&amp;nbsp;&lt;/font&gt;&lt;/span&gt;&lt;span style=&quot;background-color: initial;&quot;&gt;&lt;font face=&quot;Lucida Console&quot;&gt;&lt;/font&gt;&lt;/span&gt;&lt;/font&gt;&lt;span style=&quot;font-family: &amp;quot;Lucida Console&amp;quot;; background-color: initial;&quot;&gt;string&lt;/span&gt;&lt;/div&gt;&lt;div style=&quot;padding-top: 5px; padding-bottom: 5px;&quot;&gt;&lt;span style=&quot;background-color: initial;&quot;&gt;&lt;font color=&quot;#0000ff&quot; face=&quot;Lucida Console&quot; style=&quot;font-size: 18px;&quot;&gt;Sentencias Simples&lt;/font&gt;&lt;/span&gt;&lt;/div&gt;&lt;div style=&quot;text-align: left; font-size: 16px;&quot;&gt;&lt;font style=&quot;font-size: 16px;&quot;&gt;&lt;span style=&quot;background-color: initial;&quot;&gt;&lt;font face=&quot;Lucida Console&quot; style=&quot;font-size: 16px;&quot;&gt;&lt;font color=&quot;#ff0080&quot;&gt;25 : &lt;/font&gt;S&lt;/font&gt;&lt;/span&gt;&lt;span style=&quot;background-color: initial;&quot;&gt;&lt;font style=&quot;font-size: 16px;&quot; face=&quot;Lucida Console&quot;&gt;&amp;nbsp;→ id = E ;&lt;/font&gt;&lt;/span&gt;&lt;/font&gt;&lt;/div&gt;&lt;div style=&quot;text-align: left; font-size: 16px;&quot;&gt;&lt;font style=&quot;font-size: 16px;&quot;&gt;&lt;span style=&quot;background-color: initial;&quot;&gt;&lt;font style=&quot;font-size: 16px;&quot; face=&quot;Lucida Console&quot;&gt;&lt;font color=&quot;#ff0080&quot;&gt;26 : &lt;/font&gt;S&lt;/font&gt;&lt;/span&gt;&lt;span style=&quot;background-color: initial;&quot;&gt;&lt;font style=&quot;font-size: 16px;&quot; face=&quot;Lucida Console&quot;&gt;&amp;nbsp;→ id &amp;amp;= E ;&lt;/font&gt;&lt;/span&gt;&lt;/font&gt;&lt;/div&gt;&lt;div style=&quot;text-align: left; font-size: 16px;&quot;&gt;&lt;font style=&quot;font-size: 16px;&quot;&gt;&lt;span style=&quot;background-color: initial;&quot;&gt;&lt;font style=&quot;font-size: 16px;&quot; face=&quot;Lucida Console&quot;&gt;&lt;font color=&quot;#ff0080&quot;&gt;27 : &lt;/font&gt;S&lt;/font&gt;&lt;/span&gt;&lt;span style=&quot;background-color: initial;&quot;&gt;&lt;font style=&quot;font-size: 16px;&quot; face=&quot;Lucida Console&quot;&gt;&amp;nbsp;→ id ( L ) ;&lt;/font&gt;&lt;/span&gt;&lt;/font&gt;&lt;/div&gt;&lt;div style=&quot;text-align: left; font-size: 16px;&quot;&gt;&lt;font style=&quot;font-size: 16px;&quot;&gt;&lt;span style=&quot;background-color: initial;&quot;&gt;&lt;font style=&quot;font-size: 16px;&quot; face=&quot;Lucida Console&quot;&gt;&lt;font color=&quot;#ff0080&quot;&gt;28 :&lt;/font&gt; S&lt;/font&gt;&lt;/span&gt;&lt;span style=&quot;background-color: initial;&quot;&gt;&lt;font style=&quot;font-size: 16px;&quot; face=&quot;Lucida Console&quot;&gt;&amp;nbsp;→ output E ;&lt;/font&gt;&lt;/span&gt;&lt;/font&gt;&lt;/div&gt;&lt;div style=&quot;text-align: left; font-size: 16px;&quot;&gt;&lt;font style=&quot;font-size: 16px;&quot;&gt;&lt;span style=&quot;background-color: initial;&quot;&gt;&lt;font style=&quot;font-size: 16px;&quot; face=&quot;Lucida Console&quot;&gt;&lt;font color=&quot;#ff0080&quot;&gt;29 :&lt;/font&gt; S&lt;/font&gt;&lt;/span&gt;&lt;span style=&quot;background-color: initial;&quot;&gt;&lt;font style=&quot;font-size: 16px;&quot; face=&quot;Lucida Console&quot;&gt;&amp;nbsp;→ input id ;&lt;/font&gt;&lt;/span&gt;&lt;/font&gt;&lt;/div&gt;&lt;div style=&quot;text-align: left; font-size: 16px;&quot;&gt;&lt;font style=&quot;font-size: 16px;&quot;&gt;&lt;span style=&quot;background-color: initial;&quot;&gt;&lt;font style=&quot;font-size: 16px;&quot; face=&quot;Lucida Console&quot;&gt;&lt;font color=&quot;#ff0080&quot;&gt;30 :&lt;/font&gt; S&lt;/font&gt;&lt;/span&gt;&lt;span style=&quot;background-color: initial;&quot;&gt;&lt;font style=&quot;font-size: 16px;&quot; face=&quot;Lucida Console&quot;&gt;&amp;nbsp;→ return X ;&lt;/font&gt;&lt;/span&gt;&lt;/font&gt;&lt;/div&gt;&lt;div style=&quot;text-align: left; font-size: 16px;&quot;&gt;&lt;font style=&quot;font-size: 16px;&quot;&gt;&lt;span style=&quot;background-color: initial;&quot;&gt;&lt;font style=&quot;font-size: 16px;&quot; face=&quot;Lucida Console&quot;&gt;&lt;font color=&quot;#ff0080&quot;&gt;31 :&lt;/font&gt; L&lt;/font&gt;&lt;/span&gt;&lt;span style=&quot;background-color: initial;&quot;&gt;&lt;font style=&quot;font-size: 16px;&quot; face=&quot;Lucida Console&quot;&gt;&amp;nbsp;→ EQ&lt;/font&gt;&lt;/span&gt;&lt;/font&gt;&lt;/div&gt;&lt;div style=&quot;text-align: left; font-size: 16px;&quot;&gt;&lt;span style=&quot;background-color: initial;&quot;&gt;&lt;font face=&quot;Lucida Console&quot;&gt;&lt;font color=&quot;#ff0080&quot;&gt;32 :&lt;/font&gt; L&lt;/font&gt;&lt;/span&gt;&lt;span style=&quot;background-color: initial;&quot;&gt;&lt;font face=&quot;Lucida Console&quot;&gt;&amp;nbsp;→&amp;nbsp;&lt;/font&gt;&lt;/span&gt;&lt;span style=&quot;font-family: &amp;quot;Lucida Console&amp;quot;; background-color: initial;&quot;&gt;λ&lt;/span&gt;&lt;/div&gt;&lt;div style=&quot;text-align: left; font-size: 16px;&quot;&gt;&lt;font style=&quot;font-size: 16px;&quot;&gt;&lt;span style=&quot;background-color: initial;&quot;&gt;&lt;font style=&quot;font-size: 16px;&quot; face=&quot;Lucida Console&quot;&gt;&lt;font color=&quot;#ff0080&quot;&gt;33 :&lt;/font&gt; Q&lt;/font&gt;&lt;/span&gt;&lt;span style=&quot;background-color: initial;&quot;&gt;&lt;font style=&quot;font-size: 16px;&quot; face=&quot;Lucida Console&quot;&gt;&amp;nbsp;→ , EQ&lt;/font&gt;&lt;/span&gt;&lt;/font&gt;&lt;/div&gt;&lt;div style=&quot;text-align: left; font-size: 16px;&quot;&gt;&lt;font style=&quot;font-size: 16px;&quot;&gt;&lt;span style=&quot;background-color: initial;&quot;&gt;&lt;font face=&quot;Lucida Console&quot;&gt;&lt;font color=&quot;#ff0080&quot;&gt;34 :&lt;/font&gt; Q&lt;/font&gt;&lt;/span&gt;&lt;span style=&quot;background-color: initial;&quot;&gt;&lt;font face=&quot;Lucida Console&quot;&gt;&amp;nbsp;→&amp;nbsp;&lt;/font&gt;&lt;/span&gt;&lt;span style=&quot;background-color: initial;&quot;&gt;&lt;font style=&quot;font-size: 16px;&quot; face=&quot;Lucida Console&quot;&gt;λ&lt;/font&gt;&lt;/span&gt;&lt;/font&gt;&lt;/div&gt;&lt;div style=&quot;text-align: left; font-size: 16px;&quot;&gt;&lt;font style=&quot;font-size: 16px;&quot;&gt;&lt;span style=&quot;background-color: initial;&quot;&gt;&lt;font style=&quot;font-size: 16px;&quot; face=&quot;Lucida Console&quot;&gt;&lt;font color=&quot;#ff0080&quot;&gt;35 :&lt;/font&gt; X&lt;/font&gt;&lt;/span&gt;&lt;span style=&quot;background-color: initial;&quot;&gt;&lt;font style=&quot;font-size: 16px;&quot; face=&quot;Lucida Console&quot;&gt;&amp;nbsp;→ E&lt;/font&gt;&lt;/span&gt;&lt;/font&gt;&lt;/div&gt;&lt;div style=&quot;text-align: left; font-size: 16px;&quot;&gt;&lt;span style=&quot;background-color: initial;&quot;&gt;&lt;font face=&quot;Lucida Console&quot;&gt;&lt;font color=&quot;#ff0080&quot;&gt;36 : &lt;/font&gt;X&lt;/font&gt;&lt;/span&gt;&lt;span style=&quot;background-color: initial;&quot;&gt;&lt;font face=&quot;Lucida Console&quot;&gt;&amp;nbsp;→&amp;nbsp;&lt;/font&gt;&lt;/span&gt;&lt;span style=&quot;font-family: &amp;quot;Lucida Console&amp;quot;; background-color: initial;&quot;&gt;λ&lt;/span&gt;&lt;/div&gt;&lt;div style=&quot;padding-bottom: 5px;&quot;&gt;&lt;span style=&quot;background-color: initial; font-size: 18px;&quot;&gt;&lt;font color=&quot;#0000ff&quot; face=&quot;Lucida Console&quot;&gt;Expresiones&lt;/font&gt;&lt;/span&gt;&lt;/div&gt;&lt;div style=&quot;text-align: left; font-size: 16px;&quot;&gt;&lt;font style=&quot;font-size: 16px;&quot;&gt;&lt;font style=&quot;font-size: 16px;&quot; face=&quot;Lucida Console&quot;&gt;&lt;font color=&quot;#ff0080&quot;&gt;37 :&lt;/font&gt; E&lt;/font&gt;&lt;span style=&quot;background-color: initial;&quot;&gt;&lt;font style=&quot;font-size: 16px;&quot; face=&quot;Lucida Console&quot;&gt;&amp;nbsp;→ E &amp;amp;&amp;amp; R&lt;/font&gt;&lt;/span&gt;&lt;/font&gt;&lt;/div&gt;&lt;div style=&quot;text-align: left; font-size: 16px;&quot;&gt;&lt;font style=&quot;background-color: initial;&quot; face=&quot;Lucida Console&quot;&gt;&lt;font color=&quot;#ff0080&quot;&gt;38 :&lt;/font&gt; E&lt;/font&gt;&lt;span style=&quot;background-color: initial;&quot;&gt;&lt;font face=&quot;Lucida Console&quot;&gt;&amp;nbsp;→&amp;nbsp;&lt;/font&gt;&lt;/span&gt;&lt;span style=&quot;font-family: &amp;quot;Lucida Console&amp;quot;; background-color: initial;&quot;&gt;R&lt;/span&gt;&lt;/div&gt;&lt;div style=&quot;text-align: left; font-size: 16px;&quot;&gt;&lt;font style=&quot;font-size: 16px;&quot;&gt;&lt;span style=&quot;background-color: initial;&quot;&gt;&lt;font style=&quot;font-size: 16px;&quot; face=&quot;Lucida Console&quot;&gt;&lt;font color=&quot;#ff0080&quot;&gt;39 :&lt;/font&gt; R&lt;/font&gt;&lt;/span&gt;&lt;span style=&quot;background-color: initial;&quot;&gt;&lt;font style=&quot;font-size: 16px;&quot; face=&quot;Lucida Console&quot;&gt;&amp;nbsp;→ R == U&lt;/font&gt;&lt;/span&gt;&lt;/font&gt;&lt;/div&gt;&lt;div style=&quot;text-align: left; font-size: 16px;&quot;&gt;&lt;span style=&quot;background-color: initial;&quot;&gt;&lt;font face=&quot;Lucida Console&quot;&gt;&lt;font color=&quot;#ff0080&quot;&gt;40 :&lt;/font&gt; R&lt;/font&gt;&lt;/span&gt;&lt;span style=&quot;background-color: initial;&quot;&gt;&lt;font face=&quot;Lucida Console&quot;&gt;&amp;nbsp;→ U&lt;/font&gt;&lt;/span&gt;&lt;/div&gt;&lt;div style=&quot;text-align: left; font-size: 16px;&quot;&gt;&lt;font style=&quot;font-size: 16px;&quot;&gt;&lt;span style=&quot;background-color: initial;&quot;&gt;&lt;font style=&quot;font-size: 16px;&quot; face=&quot;Lucida Console&quot;&gt;&lt;font color=&quot;#ff0080&quot;&gt;41 :&lt;/font&gt; U&lt;/font&gt;&lt;/span&gt;&lt;span style=&quot;background-color: initial;&quot;&gt;&lt;font style=&quot;font-size: 16px;&quot; face=&quot;Lucida Console&quot;&gt;&amp;nbsp;→ U + V&lt;/font&gt;&lt;/span&gt;&lt;/font&gt;&lt;/div&gt;&lt;div style=&quot;text-align: left; font-size: 16px;&quot;&gt;&lt;font style=&quot;font-size: 16px;&quot;&gt;&lt;span style=&quot;background-color: initial;&quot;&gt;&lt;font face=&quot;Lucida Console&quot;&gt;&lt;font color=&quot;#ff0080&quot;&gt;42 :&lt;/font&gt; U&lt;/font&gt;&lt;/span&gt;&lt;span style=&quot;background-color: initial;&quot;&gt;&lt;font face=&quot;Lucida Console&quot;&gt;&amp;nbsp;→&amp;nbsp;&lt;/font&gt;&lt;/span&gt;&lt;span style=&quot;background-color: initial;&quot;&gt;&lt;font style=&quot;font-size: 16px;&quot; face=&quot;Lucida Console&quot;&gt;V&lt;/font&gt;&lt;/span&gt;&lt;/font&gt;&lt;/div&gt;&lt;div style=&quot;text-align: left; font-size: 16px;&quot;&gt;&lt;font style=&quot;font-size: 16px;&quot;&gt;&lt;span style=&quot;background-color: initial;&quot;&gt;&lt;font style=&quot;font-size: 16px;&quot; face=&quot;Lucida Console&quot;&gt;&lt;font color=&quot;#ff0080&quot;&gt;43 :&lt;/font&gt; V&lt;/font&gt;&lt;/span&gt;&lt;span style=&quot;background-color: initial;&quot;&gt;&lt;font style=&quot;font-size: 16px;&quot; face=&quot;Lucida Console&quot;&gt;&amp;nbsp;→ id&lt;/font&gt;&lt;/span&gt;&lt;/font&gt;&lt;/div&gt;&lt;div style=&quot;text-align: left; font-size: 16px;&quot;&gt;&lt;font style=&quot;font-size: 16px;&quot;&gt;&lt;span style=&quot;background-color: initial;&quot;&gt;&lt;font face=&quot;Lucida Console&quot;&gt;&lt;font color=&quot;#ff0080&quot;&gt;44 :&lt;/font&gt; V&lt;/font&gt;&lt;/span&gt;&lt;span style=&quot;background-color: initial;&quot;&gt;&lt;font face=&quot;Lucida Console&quot;&gt;&amp;nbsp;→&amp;nbsp;&lt;/font&gt;&lt;/span&gt;&lt;span style=&quot;background-color: initial;&quot;&gt;&lt;font style=&quot;font-size: 16px;&quot; face=&quot;Lucida Console&quot;&gt;&lt;/font&gt;&lt;/span&gt;&lt;/font&gt;&lt;span style=&quot;font-family: &amp;quot;Lucida Console&amp;quot;; background-color: initial;&quot;&gt;( E )&lt;/span&gt;&lt;/div&gt;&lt;div style=&quot;text-align: left; font-size: 16px;&quot;&gt;&lt;font style=&quot;font-size: 16px;&quot;&gt;&lt;span style=&quot;background-color: initial;&quot;&gt;&lt;font face=&quot;Lucida Console&quot;&gt;&lt;font color=&quot;#ff0080&quot;&gt;45 :&lt;/font&gt; V&lt;/font&gt;&lt;/span&gt;&lt;span style=&quot;background-color: initial;&quot;&gt;&lt;font face=&quot;Lucida Console&quot;&gt;&amp;nbsp;→&amp;nbsp;&lt;/font&gt;&lt;/span&gt;&lt;span style=&quot;background-color: initial;&quot;&gt;&lt;font face=&quot;Lucida Console&quot;&gt;&lt;/font&gt;&lt;/span&gt;&lt;/font&gt;&lt;span style=&quot;font-family: &amp;quot;Lucida Console&amp;quot;; background-color: initial;&quot;&gt;id ( L )&lt;/span&gt;&lt;/div&gt;&lt;div style=&quot;text-align: left; font-size: 16px;&quot;&gt;&lt;font style=&quot;font-size: 16px;&quot;&gt;&lt;span style=&quot;background-color: initial;&quot;&gt;&lt;font face=&quot;Lucida Console&quot;&gt;&lt;font color=&quot;#ff0080&quot;&gt;46 :&lt;/font&gt; V&lt;/font&gt;&lt;/span&gt;&lt;span style=&quot;background-color: initial;&quot;&gt;&lt;font face=&quot;Lucida Console&quot;&gt;&amp;nbsp;→&amp;nbsp;&lt;/font&gt;&lt;/span&gt;&lt;span style=&quot;background-color: initial;&quot;&gt;&lt;font face=&quot;Lucida Console&quot;&gt;&lt;/font&gt;&lt;/span&gt;&lt;/font&gt;&lt;span style=&quot;font-family: &amp;quot;Lucida Console&amp;quot;; background-color: initial;&quot;&gt;ent&lt;/span&gt;&lt;/div&gt;&lt;div style=&quot;text-align: left; font-size: 16px;&quot;&gt;&lt;font style=&quot;font-size: 16px;&quot;&gt;&lt;span style=&quot;background-color: initial;&quot;&gt;&lt;font face=&quot;Lucida Console&quot;&gt;&lt;font color=&quot;#ff0080&quot;&gt;47 :&lt;/font&gt; V&lt;/font&gt;&lt;/span&gt;&lt;span style=&quot;background-color: initial;&quot;&gt;&lt;font face=&quot;Lucida Console&quot;&gt;&amp;nbsp;→&amp;nbsp;&lt;/font&gt;&lt;/span&gt;&lt;span style=&quot;background-color: initial;&quot;&gt;&lt;font face=&quot;Lucida Console&quot;&gt;&lt;/font&gt;&lt;/span&gt;&lt;/font&gt;&lt;span style=&quot;font-family: &amp;quot;Lucida Console&amp;quot;; background-color: initial;&quot;&gt;cad&lt;/span&gt;&lt;/div&gt;&lt;div style=&quot;text-align: left; font-size: 16px;&quot;&gt;&lt;span style=&quot;background-color: initial;&quot;&gt;&lt;font face=&quot;Lucida Console&quot;&gt;&lt;font color=&quot;#ff0080&quot;&gt;48 :&lt;/font&gt; V&lt;/font&gt;&lt;/span&gt;&lt;span style=&quot;background-color: initial;&quot;&gt;&lt;font face=&quot;Lucida Console&quot;&gt;&amp;nbsp;→&amp;nbsp;&lt;/font&gt;&lt;/span&gt;&lt;span style=&quot;font-family: &amp;quot;Lucida Console&amp;quot;; background-color: initial;&quot;&gt;&lt;/span&gt;&lt;span style=&quot;font-family: &amp;quot;Lucida Console&amp;quot;; background-color: initial;&quot;&gt;bool&lt;/span&gt;&lt;/div&gt;&lt;p&gt;&lt;/p&gt;" style="text;html=1;align=center;verticalAlign=middle;whiteSpace=wrap;rounded=0;fontSize=15;" parent="1" vertex="1">
          <mxGeometry x="210" y="30" width="410" height="1110" as="geometry" />
        </mxCell>
        <mxCell id="gA3qe5BLo0m5heG2OYdW-2" value="&lt;div&gt;&lt;font color=&quot;#0000ff&quot; face=&quot;Lucida Console&quot; style=&quot;font-size: 21px;&quot;&gt;&lt;u&gt;Gramática de An. St. Ascendente&lt;/u&gt;&lt;/font&gt;&lt;/div&gt;&lt;div&gt;&lt;font color=&quot;#0000ff&quot; face=&quot;Lucida Console&quot; style=&quot;font-size: 21px;&quot;&gt;&lt;br&gt;&lt;/font&gt;&lt;/div&gt;&lt;font color=&quot;#0000ff&quot; face=&quot;Lucida Console&quot; style=&quot;font-size: 18px;&quot;&gt;Estructura del programa&lt;/font&gt;&lt;div style=&quot;font-size: 16px;&quot;&gt;&lt;font style=&quot;font-size: 16px;&quot;&gt;&lt;font face=&quot;Lucida Console&quot; style=&quot;font-size: 16px;&quot;&gt;P&amp;nbsp;&lt;/font&gt;&lt;span style=&quot;background-color: initial;&quot;&gt;&lt;font face=&quot;Lucida Console&quot; style=&quot;font-size: 16px;&quot;&gt;→ BP |&amp;nbsp;&lt;/font&gt;&lt;/span&gt;&lt;/font&gt;&lt;font style=&quot;background-color: initial;&quot;&gt;&lt;span style=&quot;background-color: initial;&quot;&gt;&lt;font face=&quot;Lucida Console&quot;&gt;FP |&amp;nbsp;&lt;/font&gt;&lt;/span&gt;&lt;/font&gt;&lt;span style=&quot;background-color: initial; font-family: &amp;quot;Lucida Console&amp;quot;;&quot;&gt;eof&lt;/span&gt;&lt;/div&gt;&lt;div style=&quot;font-size: 16px;&quot;&gt;&lt;span style=&quot;background-color: initial; font-family: &amp;quot;Lucida Console&amp;quot;;&quot;&gt;&lt;br&gt;&lt;/span&gt;&lt;/div&gt;&lt;div style=&quot;&quot;&gt;&lt;span style=&quot;background-color: initial;&quot;&gt;&lt;font color=&quot;#0000ff&quot; face=&quot;Lucida Console&quot; style=&quot;font-size: 18px;&quot;&gt;Sentencias Compuestas&lt;/font&gt;&lt;/span&gt;&lt;/div&gt;&lt;div style=&quot;font-size: 16px;&quot;&gt;&lt;font style=&quot;font-size: 16px;&quot;&gt;&lt;span style=&quot;background-color: initial;&quot;&gt;&lt;font face=&quot;Lucida Console&quot; style=&quot;font-size: 16px;&quot;&gt;B&amp;nbsp;&lt;/font&gt;&lt;/span&gt;&lt;span style=&quot;background-color: initial;&quot;&gt;&lt;font face=&quot;Lucida Console&quot; style=&quot;font-size: 16px;&quot;&gt;→ var T id ; |&amp;nbsp;&lt;/font&gt;&lt;/span&gt;&lt;/font&gt;&lt;span style=&quot;font-family: &amp;quot;Lucida Console&amp;quot;; background-color: initial;&quot;&gt;if ( E ) { B } I |&amp;nbsp;&lt;/span&gt;&lt;span style=&quot;font-family: &amp;quot;Lucida Console&amp;quot;; background-color: initial;&quot;&gt;if ( E ) S |&amp;nbsp;&lt;/span&gt;&lt;span style=&quot;background-color: initial;&quot;&gt;&lt;font face=&quot;Lucida Console&quot;&gt;B&amp;nbsp;&lt;/font&gt;&lt;/span&gt;&lt;span style=&quot;background-color: initial;&quot;&gt;&lt;font face=&quot;Lucida Console&quot;&gt;→ S&lt;/font&gt;&lt;/span&gt;&lt;/div&gt;&lt;div style=&quot;font-size: 16px;&quot;&gt;&lt;font style=&quot;font-size: 16px;&quot;&gt;&lt;span style=&quot;background-color: initial;&quot;&gt;&lt;font face=&quot;Lucida Console&quot; style=&quot;font-size: 16px;&quot;&gt;F&amp;nbsp;&lt;/font&gt;&lt;/span&gt;&lt;span style=&quot;background-color: initial;&quot;&gt;&lt;font face=&quot;Lucida Console&quot; style=&quot;font-size: 16px;&quot;&gt;→ function F1 F2 F3 { C }&lt;/font&gt;&lt;/span&gt;&lt;/font&gt;&lt;/div&gt;&lt;div style=&quot;font-size: 16px;&quot;&gt;&lt;font style=&quot;font-size: 16px;&quot;&gt;&lt;span style=&quot;background-color: initial;&quot;&gt;&lt;font face=&quot;Lucida Console&quot; style=&quot;font-size: 16px;&quot;&gt;F1&lt;/font&gt;&lt;/span&gt;&lt;span style=&quot;background-color: initial;&quot;&gt;&lt;font style=&quot;font-size: 16px;&quot; face=&quot;Lucida Console&quot;&gt;&amp;nbsp;→ H&lt;/font&gt;&lt;/span&gt;&lt;/font&gt;&lt;/div&gt;&lt;div style=&quot;font-size: 16px;&quot;&gt;&lt;font style=&quot;font-size: 16px;&quot;&gt;&lt;span style=&quot;background-color: initial;&quot;&gt;&lt;font style=&quot;font-size: 16px;&quot; face=&quot;Lucida Console&quot;&gt;F2&lt;/font&gt;&lt;/span&gt;&lt;span style=&quot;background-color: initial;&quot;&gt;&lt;font style=&quot;font-size: 16px;&quot; face=&quot;Lucida Console&quot;&gt;&amp;nbsp;→ id&lt;/font&gt;&lt;/span&gt;&lt;/font&gt;&lt;/div&gt;&lt;div style=&quot;font-size: 16px;&quot;&gt;&lt;font style=&quot;font-size: 16px;&quot;&gt;&lt;span style=&quot;background-color: initial;&quot;&gt;&lt;font style=&quot;font-size: 16px;&quot; face=&quot;Lucida Console&quot;&gt;&amp;nbsp;F3&lt;/font&gt;&lt;/span&gt;&lt;span style=&quot;background-color: initial;&quot;&gt;&lt;font style=&quot;font-size: 16px;&quot; face=&quot;Lucida Console&quot;&gt;&amp;nbsp;→ ( A )&lt;/font&gt;&lt;/span&gt;&lt;/font&gt;&lt;/div&gt;&lt;div style=&quot;font-size: 16px;&quot;&gt;&lt;font style=&quot;font-size: 16px;&quot;&gt;&lt;span style=&quot;background-color: initial;&quot;&gt;&lt;font face=&quot;Lucida Console&quot; style=&quot;font-size: 16px;&quot;&gt;H&lt;/font&gt;&lt;/span&gt;&lt;span style=&quot;background-color: initial;&quot;&gt;&lt;font face=&quot;Lucida Console&quot; style=&quot;font-size: 16px;&quot;&gt;&amp;nbsp;→ T | void&lt;/font&gt;&lt;/span&gt;&lt;/font&gt;&lt;/div&gt;&lt;div style=&quot;font-size: 16px;&quot;&gt;&lt;font style=&quot;font-size: 16px;&quot;&gt;&lt;span style=&quot;background-color: initial;&quot;&gt;&lt;font face=&quot;Lucida Console&quot; style=&quot;font-size: 16px;&quot;&gt;A&lt;/font&gt;&lt;/span&gt;&lt;span style=&quot;background-color: initial;&quot;&gt;&lt;font face=&quot;Lucida Console&quot; style=&quot;font-size: 16px;&quot;&gt;&amp;nbsp;→ T id K | void&lt;/font&gt;&lt;/span&gt;&lt;/font&gt;&lt;/div&gt;&lt;div style=&quot;font-size: 16px;&quot;&gt;&lt;font style=&quot;font-size: 16px;&quot;&gt;&lt;span style=&quot;background-color: initial;&quot;&gt;&lt;font face=&quot;Lucida Console&quot; style=&quot;font-size: 16px;&quot;&gt;K&lt;/font&gt;&lt;/span&gt;&lt;span style=&quot;background-color: initial;&quot;&gt;&lt;font face=&quot;Lucida Console&quot; style=&quot;font-size: 16px;&quot;&gt;&amp;nbsp;→ , T id K |&amp;nbsp;&lt;/font&gt;&lt;/span&gt;&lt;span style=&quot;background-color: initial;&quot;&gt;&lt;font face=&quot;Lucida Console&quot; style=&quot;font-size: 16px;&quot;&gt;λ&lt;/font&gt;&lt;/span&gt;&lt;/font&gt;&lt;/div&gt;&lt;div style=&quot;font-size: 16px;&quot;&gt;&lt;font style=&quot;font-size: 16px;&quot;&gt;&lt;span style=&quot;background-color: initial;&quot;&gt;&lt;font face=&quot;Lucida Console&quot; style=&quot;font-size: 16px;&quot;&gt;I&amp;nbsp;&lt;/font&gt;&lt;/span&gt;&lt;span style=&quot;background-color: initial;&quot;&gt;&lt;font face=&quot;Lucida Console&quot; style=&quot;font-size: 16px;&quot;&gt;→ else { B } |&amp;nbsp;&lt;/font&gt;&lt;/span&gt;&lt;span style=&quot;background-color: initial;&quot;&gt;&lt;font face=&quot;Lucida Console&quot; style=&quot;font-size: 16px;&quot;&gt;λ&lt;/font&gt;&lt;/span&gt;&lt;/font&gt;&lt;/div&gt;&lt;div style=&quot;font-size: 16px;&quot;&gt;&lt;font style=&quot;font-size: 16px;&quot;&gt;&lt;span style=&quot;background-color: initial;&quot;&gt;&lt;font face=&quot;Lucida Console&quot; style=&quot;font-size: 16px;&quot;&gt;T&amp;nbsp;&lt;/font&gt;&lt;/span&gt;&lt;span style=&quot;background-color: initial;&quot;&gt;&lt;font face=&quot;Lucida Console&quot; style=&quot;font-size: 16px;&quot;&gt;→ int | boolean | string&lt;/font&gt;&lt;/span&gt;&lt;/font&gt;&lt;/div&gt;&lt;div style=&quot;font-size: 16px;&quot;&gt;&lt;font style=&quot;font-size: 16px;&quot;&gt;&lt;span style=&quot;background-color: initial;&quot;&gt;&lt;font face=&quot;Lucida Console&quot; style=&quot;font-size: 16px;&quot;&gt;&lt;br&gt;&lt;/font&gt;&lt;/span&gt;&lt;/font&gt;&lt;/div&gt;&lt;div style=&quot;&quot;&gt;&lt;span style=&quot;background-color: initial;&quot;&gt;&lt;font color=&quot;#0000ff&quot; face=&quot;Lucida Console&quot; style=&quot;font-size: 18px;&quot;&gt;Sentencias Simples&lt;/font&gt;&lt;/span&gt;&lt;/div&gt;&lt;div style=&quot;font-size: 16px;&quot;&gt;&lt;font style=&quot;font-size: 16px;&quot;&gt;&lt;span style=&quot;background-color: initial;&quot;&gt;&lt;font face=&quot;Lucida Console&quot; style=&quot;font-size: 16px;&quot;&gt;S&lt;/font&gt;&lt;/span&gt;&lt;span style=&quot;background-color: initial;&quot;&gt;&lt;font style=&quot;font-size: 16px;&quot; face=&quot;Lucida Console&quot;&gt;&amp;nbsp;→ id = E ; |&amp;nbsp;&lt;/font&gt;&lt;/span&gt;&lt;/font&gt;&lt;span style=&quot;font-family: &amp;quot;Lucida Console&amp;quot;; background-color: initial;&quot;&gt;id &amp;amp;= E ; |&amp;nbsp;&lt;/span&gt;&lt;span style=&quot;font-family: &amp;quot;Lucida Console&amp;quot;; background-color: initial;&quot;&gt;id ( L ) ; |&amp;nbsp;&lt;/span&gt;&lt;span style=&quot;font-family: &amp;quot;Lucida Console&amp;quot;; background-color: initial;&quot;&gt;output E ; |&amp;nbsp;&lt;/span&gt;&lt;span style=&quot;font-family: &amp;quot;Lucida Console&amp;quot;; background-color: initial;&quot;&gt;input id ; |&amp;nbsp;&lt;/span&gt;&lt;span style=&quot;font-family: &amp;quot;Lucida Console&amp;quot;; background-color: initial;&quot;&gt;return X ;&lt;/span&gt;&lt;/div&gt;&lt;div style=&quot;font-size: 16px;&quot;&gt;&lt;font style=&quot;font-size: 16px;&quot;&gt;&lt;span style=&quot;background-color: initial;&quot;&gt;&lt;font style=&quot;font-size: 16px;&quot; face=&quot;Lucida Console&quot;&gt;L&lt;/font&gt;&lt;/span&gt;&lt;span style=&quot;background-color: initial;&quot;&gt;&lt;font style=&quot;font-size: 16px;&quot; face=&quot;Lucida Console&quot;&gt;&amp;nbsp;→ EQ |&amp;nbsp;&lt;/font&gt;&lt;/span&gt;&lt;span style=&quot;background-color: initial;&quot;&gt;&lt;font style=&quot;font-size: 16px;&quot; face=&quot;Lucida Console&quot;&gt;λ&lt;/font&gt;&lt;/span&gt;&lt;/font&gt;&lt;/div&gt;&lt;div style=&quot;font-size: 16px;&quot;&gt;&lt;font style=&quot;font-size: 16px;&quot;&gt;&lt;span style=&quot;background-color: initial;&quot;&gt;&lt;font style=&quot;font-size: 16px;&quot; face=&quot;Lucida Console&quot;&gt;Q&lt;/font&gt;&lt;/span&gt;&lt;span style=&quot;background-color: initial;&quot;&gt;&lt;font style=&quot;font-size: 16px;&quot; face=&quot;Lucida Console&quot;&gt;&amp;nbsp;→ , EQ |&amp;nbsp;&lt;/font&gt;&lt;/span&gt;&lt;span style=&quot;background-color: initial;&quot;&gt;&lt;font style=&quot;font-size: 16px;&quot; face=&quot;Lucida Console&quot;&gt;λ&lt;/font&gt;&lt;/span&gt;&lt;/font&gt;&lt;/div&gt;&lt;div style=&quot;font-size: 16px;&quot;&gt;&lt;font style=&quot;font-size: 16px;&quot;&gt;&lt;span style=&quot;background-color: initial;&quot;&gt;&lt;font style=&quot;font-size: 16px;&quot; face=&quot;Lucida Console&quot;&gt;X&lt;/font&gt;&lt;/span&gt;&lt;span style=&quot;background-color: initial;&quot;&gt;&lt;font style=&quot;font-size: 16px;&quot; face=&quot;Lucida Console&quot;&gt;&amp;nbsp;→ E |&amp;nbsp;&lt;/font&gt;&lt;/span&gt;&lt;span style=&quot;background-color: initial;&quot;&gt;&lt;font style=&quot;font-size: 16px;&quot; face=&quot;Lucida Console&quot;&gt;λ&lt;/font&gt;&lt;/span&gt;&lt;/font&gt;&lt;/div&gt;&lt;div style=&quot;font-size: 16px;&quot;&gt;&lt;font style=&quot;font-size: 16px;&quot;&gt;&lt;span style=&quot;background-color: initial;&quot;&gt;&lt;font style=&quot;font-size: 16px;&quot; face=&quot;Lucida Console&quot;&gt;&lt;br&gt;&lt;/font&gt;&lt;/span&gt;&lt;/font&gt;&lt;/div&gt;&lt;div style=&quot;&quot;&gt;&lt;span style=&quot;background-color: initial; font-size: 18px;&quot;&gt;&lt;font color=&quot;#0000ff&quot; face=&quot;Lucida Console&quot;&gt;Expresiones&lt;/font&gt;&lt;/span&gt;&lt;/div&gt;&lt;div style=&quot;font-size: 16px;&quot;&gt;&lt;font style=&quot;font-size: 16px;&quot;&gt;&lt;font style=&quot;font-size: 16px;&quot; face=&quot;Lucida Console&quot;&gt;E&lt;/font&gt;&lt;span style=&quot;background-color: initial;&quot;&gt;&lt;font style=&quot;font-size: 16px;&quot; face=&quot;Lucida Console&quot;&gt;&amp;nbsp;→ E &amp;amp;&amp;amp; R | R&lt;/font&gt;&lt;/span&gt;&lt;/font&gt;&lt;/div&gt;&lt;div style=&quot;font-size: 16px;&quot;&gt;&lt;font style=&quot;font-size: 16px;&quot;&gt;&lt;span style=&quot;background-color: initial;&quot;&gt;&lt;font style=&quot;font-size: 16px;&quot; face=&quot;Lucida Console&quot;&gt;R&lt;/font&gt;&lt;/span&gt;&lt;span style=&quot;background-color: initial;&quot;&gt;&lt;font style=&quot;font-size: 16px;&quot; face=&quot;Lucida Console&quot;&gt;&amp;nbsp;→ R == U | V&lt;/font&gt;&lt;/span&gt;&lt;/font&gt;&lt;/div&gt;&lt;div style=&quot;font-size: 16px;&quot;&gt;&lt;font style=&quot;font-size: 16px;&quot;&gt;&lt;span style=&quot;background-color: initial;&quot;&gt;&lt;font style=&quot;font-size: 16px;&quot; face=&quot;Lucida Console&quot;&gt;U&lt;/font&gt;&lt;/span&gt;&lt;span style=&quot;background-color: initial;&quot;&gt;&lt;font style=&quot;font-size: 16px;&quot; face=&quot;Lucida Console&quot;&gt;&amp;nbsp;→ U + V | V&lt;/font&gt;&lt;/span&gt;&lt;/font&gt;&lt;/div&gt;&lt;div style=&quot;font-size: 16px;&quot;&gt;&lt;font style=&quot;font-size: 16px;&quot;&gt;&lt;span style=&quot;background-color: initial;&quot;&gt;&lt;font style=&quot;font-size: 16px;&quot; face=&quot;Lucida Console&quot;&gt;V&lt;/font&gt;&lt;/span&gt;&lt;span style=&quot;background-color: initial;&quot;&gt;&lt;font style=&quot;font-size: 16px;&quot; face=&quot;Lucida Console&quot;&gt;&amp;nbsp;→ id | ( E ) | id ( L ) | ent | cad | bool&lt;/font&gt;&lt;/span&gt;&lt;/font&gt;&lt;/div&gt;" style="text;html=1;align=center;verticalAlign=middle;whiteSpace=wrap;rounded=0;fontSize=15;" parent="1" vertex="1">
          <mxGeometry x="60" y="1250" width="750" height="890" as="geometry" />
        </mxCell>
      </root>
    </mxGraphModel>
  </diagram>
  <diagram id="FFWCOpNWFU-gbs0zvikW" name="Page-2">
    <mxGraphModel dx="1050" dy="522" grid="1" gridSize="10" guides="1" tooltips="1" connect="1" arrows="1" fold="1" page="1" pageScale="1" pageWidth="827" pageHeight="1169" math="0" shadow="0">
      <root>
        <mxCell id="0" />
        <mxCell id="1" parent="0" />
        <mxCell id="-zA01G44rTR7FGnaO8kJ-1" value="&lt;p style=&quot;line-height: 120%;&quot;&gt;&lt;/p&gt;&lt;div style=&quot;padding-bottom: 5px;&quot;&gt;&lt;font color=&quot;#0000ff&quot; face=&quot;Lucida Console&quot; style=&quot;font-size: 21px;&quot;&gt;&lt;u&gt;Gramática de An. St. Ascendente&lt;/u&gt;&lt;/font&gt;&lt;/div&gt;&lt;font color=&quot;#0000ff&quot; face=&quot;Lucida Console&quot; style=&quot;font-size: 18px;&quot;&gt;Estructura del programa&lt;/font&gt;&lt;div style=&quot;text-align: left; font-size: 16px; padding-top: 5px; padding-bottom: 0px; margin-top: 0px;&quot;&gt;&lt;font style=&quot;font-size: 16px;&quot;&gt;&lt;font face=&quot;Lucida Console&quot; style=&quot;font-size: 16px;&quot;&gt;&lt;font color=&quot;#ff0080&quot;&gt;1 : &lt;/font&gt;P&amp;nbsp;&lt;/font&gt;&lt;span style=&quot;background-color: initial;&quot;&gt;&lt;font face=&quot;Lucida Console&quot; style=&quot;font-size: 16px;&quot;&gt;→ BP&lt;/font&gt;&lt;/span&gt;&lt;/font&gt;&lt;/div&gt;&lt;div style=&quot;text-align: left; font-size: 16px;&quot;&gt;&lt;font style=&quot;font-size: 16px;&quot;&gt;&lt;span style=&quot;background-color: initial;&quot;&gt;&lt;font face=&quot;Lucida Console&quot; style=&quot;font-size: 16px;&quot;&gt;&lt;font color=&quot;#ff0080&quot;&gt;2 :&lt;/font&gt; P&amp;nbsp;&lt;/font&gt;&lt;/span&gt;&lt;span style=&quot;background-color: initial;&quot;&gt;&lt;font face=&quot;Lucida Console&quot; style=&quot;font-size: 16px;&quot;&gt;→ FP&lt;/font&gt;&lt;/span&gt;&lt;/font&gt;&lt;/div&gt;&lt;div style=&quot;text-align: left; font-size: 16px; margin-bottom: 5px;&quot;&gt;&lt;font style=&quot;font-size: 16px; background-color: rgb(153, 255, 204);&quot;&gt;&lt;font face=&quot;Lucida Console&quot; style=&quot;font-size: 16px;&quot;&gt;&lt;font style=&quot;&quot; color=&quot;#ff0080&quot;&gt;3 :&lt;/font&gt; P&amp;nbsp;&lt;/font&gt;&lt;font face=&quot;Lucida Console&quot; style=&quot;font-size: 16px;&quot;&gt;→ eof&lt;/font&gt;&lt;/font&gt;&lt;/div&gt;&lt;div style=&quot;padding-top: 5px; padding-bottom: 5px;&quot;&gt;&lt;span style=&quot;background-color: initial;&quot;&gt;&lt;font color=&quot;#0000ff&quot; face=&quot;Lucida Console&quot; style=&quot;font-size: 18px;&quot;&gt;Sentencias Compuestas&lt;/font&gt;&lt;/span&gt;&lt;/div&gt;&lt;div style=&quot;text-align: left; font-size: 16px;&quot;&gt;&lt;font style=&quot;font-size: 16px;&quot;&gt;&lt;span style=&quot;background-color: initial;&quot;&gt;&lt;font face=&quot;Lucida Console&quot; style=&quot;font-size: 16px;&quot;&gt;&lt;font color=&quot;#ff0080&quot;&gt;4 : &lt;/font&gt;B&amp;nbsp;&lt;/font&gt;&lt;/span&gt;&lt;span style=&quot;background-color: initial;&quot;&gt;&lt;font face=&quot;Lucida Console&quot; style=&quot;font-size: 16px;&quot;&gt;→ var T id ;&lt;/font&gt;&lt;/span&gt;&lt;/font&gt;&lt;/div&gt;&lt;div style=&quot;text-align: left; font-size: 16px;&quot;&gt;&lt;font style=&quot;font-size: 16px; background-color: rgb(153, 255, 204);&quot;&gt;&lt;font face=&quot;Lucida Console&quot; style=&quot;font-size: 16px;&quot;&gt;&lt;font style=&quot;&quot; color=&quot;#ff0080&quot;&gt;5 : &lt;/font&gt;B&amp;nbsp;&lt;/font&gt;&lt;font face=&quot;Lucida Console&quot; style=&quot;font-size: 16px;&quot;&gt;→ if ( E ) { C } I&lt;/font&gt;&lt;/font&gt;&lt;/div&gt;&lt;div style=&quot;text-align: left; font-size: 16px;&quot;&gt;&lt;font style=&quot;font-size: 16px;&quot;&gt;&lt;span style=&quot;background-color: initial;&quot;&gt;&lt;font face=&quot;Lucida Console&quot; style=&quot;font-size: 16px;&quot;&gt;&lt;font color=&quot;#ff0080&quot;&gt;6 :&lt;/font&gt; B&lt;/font&gt;&lt;/span&gt;&lt;span style=&quot;background-color: initial;&quot;&gt;&lt;font style=&quot;font-size: 16px;&quot; face=&quot;Lucida Console&quot;&gt;&amp;nbsp;→ if ( E ) S&lt;/font&gt;&lt;/span&gt;&lt;/font&gt;&lt;/div&gt;&lt;div style=&quot;text-align: left; font-size: 16px;&quot;&gt;&lt;font style=&quot;font-size: 16px;&quot;&gt;&lt;span style=&quot;background-color: initial;&quot;&gt;&lt;font face=&quot;Lucida Console&quot; style=&quot;font-size: 16px;&quot;&gt;&lt;font color=&quot;#ff0080&quot;&gt;7 : &lt;/font&gt;B&amp;nbsp;&lt;/font&gt;&lt;/span&gt;&lt;span style=&quot;background-color: initial;&quot;&gt;&lt;font face=&quot;Lucida Console&quot; style=&quot;font-size: 16px;&quot;&gt;→ S&lt;/font&gt;&lt;/span&gt;&lt;/font&gt;&lt;/div&gt;&lt;div style=&quot;text-align: left; font-size: 16px;&quot;&gt;&lt;font style=&quot;font-size: 16px; background-color: rgb(153, 255, 204);&quot;&gt;&lt;font face=&quot;Lucida Console&quot; style=&quot;font-size: 16px;&quot;&gt;&lt;font style=&quot;&quot; color=&quot;#ff0080&quot;&gt;8: &lt;/font&gt;F&amp;nbsp;&lt;/font&gt;&lt;font face=&quot;Lucida Console&quot; style=&quot;font-size: 16px;&quot;&gt;→ function F1 F2 F3 { C }&lt;/font&gt;&lt;/font&gt;&lt;/div&gt;&lt;div style=&quot;text-align: left; font-size: 16px;&quot;&gt;&lt;font style=&quot;font-size: 16px; background-color: rgb(153, 255, 204);&quot;&gt;&lt;font face=&quot;Lucida Console&quot; style=&quot;font-size: 16px;&quot;&gt;&lt;font style=&quot;&quot; color=&quot;#ff0080&quot;&gt;9 : &lt;/font&gt;F1&lt;/font&gt;&lt;font style=&quot;font-size: 16px;&quot; face=&quot;Lucida Console&quot;&gt;&amp;nbsp;→ H&lt;/font&gt;&lt;/font&gt;&lt;/div&gt;&lt;div style=&quot;text-align: left; font-size: 16px;&quot;&gt;&lt;font style=&quot;font-size: 16px; background-color: rgb(153, 255, 204);&quot;&gt;&lt;font style=&quot;font-size: 16px;&quot; face=&quot;Lucida Console&quot;&gt;&lt;font style=&quot;&quot; color=&quot;#ff0080&quot;&gt;10 : &lt;/font&gt;F2&lt;/font&gt;&lt;font style=&quot;font-size: 16px;&quot; face=&quot;Lucida Console&quot;&gt;&amp;nbsp;→ id&lt;/font&gt;&lt;/font&gt;&lt;/div&gt;&lt;div style=&quot;text-align: left; font-size: 16px;&quot;&gt;&lt;font style=&quot;font-size: 16px; background-color: rgb(153, 255, 204);&quot;&gt;&lt;font style=&quot;font-size: 16px;&quot; face=&quot;Lucida Console&quot;&gt;&lt;font style=&quot;&quot; color=&quot;#ff0080&quot;&gt;11 : &lt;/font&gt;F3&lt;/font&gt;&lt;font style=&quot;font-size: 16px;&quot; face=&quot;Lucida Console&quot;&gt;&amp;nbsp;→ ( A )&lt;/font&gt;&lt;/font&gt;&lt;/div&gt;&lt;div style=&quot;text-align: left; font-size: 16px;&quot;&gt;&lt;font style=&quot;font-size: 16px;&quot;&gt;&lt;span style=&quot;background-color: initial;&quot;&gt;&lt;font face=&quot;Lucida Console&quot; style=&quot;font-size: 16px;&quot;&gt;&lt;font color=&quot;#ff0080&quot;&gt;12 : &lt;/font&gt;C&amp;nbsp;&lt;/font&gt;&lt;/span&gt;&lt;/font&gt;&lt;span style=&quot;font-family: &amp;quot;Lucida Console&amp;quot;; background-color: initial;&quot;&gt;→&amp;nbsp;&lt;/span&gt;&lt;span style=&quot;font-family: &amp;quot;Lucida Console&amp;quot;; background-color: initial;&quot;&gt;BC&lt;/span&gt;&lt;/div&gt;&lt;div style=&quot;text-align: left; font-size: 16px;&quot;&gt;&lt;span style=&quot;font-family: &amp;quot;Lucida Console&amp;quot;; background-color: initial;&quot;&gt;&lt;font color=&quot;#ff0080&quot;&gt;13 : &lt;/font&gt;C&amp;nbsp;&lt;/span&gt;&lt;span style=&quot;font-family: &amp;quot;Lucida Console&amp;quot;; background-color: initial;&quot;&gt;→&amp;nbsp;&lt;/span&gt;&lt;span style=&quot;font-family: &amp;quot;Lucida Console&amp;quot;; background-color: initial;&quot;&gt;λ&lt;/span&gt;&lt;/div&gt;&lt;div style=&quot;text-align: left; font-size: 16px;&quot;&gt;&lt;font style=&quot;font-size: 16px;&quot;&gt;&lt;span style=&quot;background-color: initial;&quot;&gt;&lt;font face=&quot;Lucida Console&quot; style=&quot;font-size: 16px;&quot;&gt;&lt;font color=&quot;#ff0080&quot;&gt;14 : &lt;/font&gt;H&lt;/font&gt;&lt;/span&gt;&lt;span style=&quot;background-color: initial;&quot;&gt;&lt;font face=&quot;Lucida Console&quot; style=&quot;font-size: 16px;&quot;&gt;&amp;nbsp;→ T&amp;nbsp;&lt;/font&gt;&lt;/span&gt;&lt;/font&gt;&lt;/div&gt;&lt;div style=&quot;text-align: left; font-size: 16px;&quot;&gt;&lt;span style=&quot;background-color: initial;&quot;&gt;&lt;font face=&quot;Lucida Console&quot;&gt;&lt;font color=&quot;#ff0080&quot;&gt;15 : &lt;/font&gt;H&lt;/font&gt;&lt;/span&gt;&lt;span style=&quot;background-color: initial;&quot;&gt;&lt;font face=&quot;Lucida Console&quot;&gt;&amp;nbsp;→&amp;nbsp;&lt;/font&gt;&lt;/span&gt;&lt;span style=&quot;font-family: &amp;quot;Lucida Console&amp;quot;; background-color: initial;&quot;&gt;void&lt;/span&gt;&lt;/div&gt;&lt;div style=&quot;text-align: left; font-size: 16px;&quot;&gt;&lt;font style=&quot;font-size: 16px;&quot;&gt;&lt;span style=&quot;background-color: initial;&quot;&gt;&lt;font face=&quot;Lucida Console&quot; style=&quot;font-size: 16px;&quot;&gt;&lt;font color=&quot;#ff0080&quot;&gt;16 : &lt;/font&gt;A&lt;/font&gt;&lt;/span&gt;&lt;span style=&quot;background-color: initial;&quot;&gt;&lt;font face=&quot;Lucida Console&quot; style=&quot;font-size: 16px;&quot;&gt;&amp;nbsp;→ T id K&amp;nbsp;&lt;/font&gt;&lt;/span&gt;&lt;/font&gt;&lt;/div&gt;&lt;div style=&quot;text-align: left; font-size: 16px;&quot;&gt;&lt;span style=&quot;background-color: initial;&quot;&gt;&lt;font face=&quot;Lucida Console&quot;&gt;&lt;font color=&quot;#ff0080&quot;&gt;17 : &lt;/font&gt;A&lt;/font&gt;&lt;/span&gt;&lt;span style=&quot;background-color: initial;&quot;&gt;&lt;font face=&quot;Lucida Console&quot;&gt;&amp;nbsp;→&amp;nbsp;&lt;/font&gt;&lt;/span&gt;&lt;span style=&quot;font-family: &amp;quot;Lucida Console&amp;quot;; background-color: initial;&quot;&gt;void&lt;/span&gt;&lt;/div&gt;&lt;div style=&quot;text-align: left; font-size: 16px;&quot;&gt;&lt;font style=&quot;font-size: 16px;&quot;&gt;&lt;span style=&quot;background-color: initial;&quot;&gt;&lt;font face=&quot;Lucida Console&quot; style=&quot;font-size: 16px;&quot;&gt;&lt;font color=&quot;#ff0080&quot;&gt;18 :&lt;/font&gt; K&lt;/font&gt;&lt;/span&gt;&lt;span style=&quot;background-color: initial;&quot;&gt;&lt;font face=&quot;Lucida Console&quot; style=&quot;font-size: 16px;&quot;&gt;&amp;nbsp;→ , T id K&lt;/font&gt;&lt;/span&gt;&lt;/font&gt;&lt;/div&gt;&lt;div style=&quot;text-align: left; font-size: 16px;&quot;&gt;&lt;span style=&quot;background-color: initial;&quot;&gt;&lt;font face=&quot;Lucida Console&quot;&gt;&lt;font color=&quot;#ff0080&quot;&gt;19 : &lt;/font&gt;K&lt;/font&gt;&lt;/span&gt;&lt;span style=&quot;background-color: initial;&quot;&gt;&lt;font face=&quot;Lucida Console&quot;&gt;&amp;nbsp;→&amp;nbsp;&lt;/font&gt;&lt;/span&gt;&lt;span style=&quot;font-family: &amp;quot;Lucida Console&amp;quot;; background-color: initial;&quot;&gt;λ&lt;/span&gt;&lt;/div&gt;&lt;div style=&quot;text-align: left; font-size: 16px;&quot;&gt;&lt;font style=&quot;font-size: 16px; background-color: rgb(153, 255, 204);&quot;&gt;&lt;font face=&quot;Lucida Console&quot; style=&quot;font-size: 16px;&quot;&gt;&lt;font style=&quot;&quot; color=&quot;#ff0080&quot;&gt;20 : &lt;/font&gt;I&amp;nbsp;&lt;/font&gt;&lt;font face=&quot;Lucida Console&quot; style=&quot;font-size: 16px;&quot;&gt;→ else { C }&lt;/font&gt;&lt;/font&gt;&lt;/div&gt;&lt;div style=&quot;text-align: left; font-size: 16px;&quot;&gt;&lt;span style=&quot;background-color: rgb(153, 255, 204);&quot;&gt;&lt;font style=&quot;&quot; face=&quot;Lucida Console&quot;&gt;&lt;font style=&quot;&quot; color=&quot;#ff0080&quot;&gt;21 : &lt;/font&gt;I&amp;nbsp;&lt;/font&gt;&lt;font face=&quot;Lucida Console&quot;&gt;→&amp;nbsp;&lt;/font&gt;&lt;span style=&quot;font-family: &amp;quot;Lucida Console&amp;quot;;&quot;&gt;λ&lt;/span&gt;&lt;/span&gt;&lt;/div&gt;&lt;div style=&quot;text-align: left; font-size: 16px;&quot;&gt;&lt;font style=&quot;font-size: 16px;&quot;&gt;&lt;span style=&quot;background-color: initial;&quot;&gt;&lt;font face=&quot;Lucida Console&quot; style=&quot;font-size: 16px;&quot;&gt;&lt;font color=&quot;#ff0080&quot;&gt;22 : &lt;/font&gt;T&amp;nbsp;&lt;/font&gt;&lt;/span&gt;&lt;span style=&quot;background-color: initial;&quot;&gt;&lt;font face=&quot;Lucida Console&quot; style=&quot;font-size: 16px;&quot;&gt;→ int&amp;nbsp;&lt;/font&gt;&lt;/span&gt;&lt;/font&gt;&lt;/div&gt;&lt;div style=&quot;text-align: left; font-size: 16px;&quot;&gt;&lt;font style=&quot;font-size: 16px;&quot;&gt;&lt;span style=&quot;background-color: initial;&quot;&gt;&lt;font face=&quot;Lucida Console&quot;&gt;&lt;font color=&quot;#ff0080&quot;&gt;23 : &lt;/font&gt;T&amp;nbsp;&lt;/font&gt;&lt;/span&gt;&lt;span style=&quot;background-color: initial;&quot;&gt;&lt;font face=&quot;Lucida Console&quot;&gt;→&amp;nbsp;&lt;/font&gt;&lt;/span&gt;&lt;/font&gt;&lt;span style=&quot;font-family: &amp;quot;Lucida Console&amp;quot;; background-color: initial;&quot;&gt;boolean&lt;/span&gt;&lt;span style=&quot;font-family: &amp;quot;Lucida Console&amp;quot;; background-color: initial;&quot;&gt;&amp;nbsp;&lt;/span&gt;&lt;/div&gt;&lt;div style=&quot;text-align: left; font-size: 16px;&quot;&gt;&lt;font style=&quot;font-size: 16px;&quot;&gt;&lt;span style=&quot;background-color: initial;&quot;&gt;&lt;font face=&quot;Lucida Console&quot;&gt;&lt;font color=&quot;#ff0080&quot;&gt;24 :&lt;/font&gt; T&amp;nbsp;&lt;/font&gt;&lt;/span&gt;&lt;span style=&quot;background-color: initial;&quot;&gt;&lt;font face=&quot;Lucida Console&quot;&gt;→&amp;nbsp;&lt;/font&gt;&lt;/span&gt;&lt;span style=&quot;background-color: initial;&quot;&gt;&lt;font face=&quot;Lucida Console&quot;&gt;&lt;/font&gt;&lt;/span&gt;&lt;/font&gt;&lt;span style=&quot;font-family: &amp;quot;Lucida Console&amp;quot;; background-color: initial;&quot;&gt;string&lt;/span&gt;&lt;/div&gt;&lt;div style=&quot;padding-top: 5px; padding-bottom: 5px;&quot;&gt;&lt;span style=&quot;background-color: initial;&quot;&gt;&lt;font color=&quot;#0000ff&quot; face=&quot;Lucida Console&quot; style=&quot;font-size: 18px;&quot;&gt;Sentencias Simples&lt;/font&gt;&lt;/span&gt;&lt;/div&gt;&lt;div style=&quot;text-align: left; font-size: 16px;&quot;&gt;&lt;font style=&quot;font-size: 16px;&quot;&gt;&lt;span style=&quot;background-color: initial;&quot;&gt;&lt;font face=&quot;Lucida Console&quot; style=&quot;font-size: 16px;&quot;&gt;&lt;font color=&quot;#ff0080&quot;&gt;25 : &lt;/font&gt;S&lt;/font&gt;&lt;/span&gt;&lt;span style=&quot;background-color: initial;&quot;&gt;&lt;font style=&quot;font-size: 16px;&quot; face=&quot;Lucida Console&quot;&gt;&amp;nbsp;→ id = E ;&lt;/font&gt;&lt;/span&gt;&lt;/font&gt;&lt;/div&gt;&lt;div style=&quot;text-align: left; font-size: 16px;&quot;&gt;&lt;font style=&quot;font-size: 16px; background-color: rgb(153, 255, 204);&quot;&gt;&lt;font style=&quot;font-size: 16px;&quot; face=&quot;Lucida Console&quot;&gt;&lt;font style=&quot;&quot; color=&quot;#ff0080&quot;&gt;26 : &lt;/font&gt;S&lt;/font&gt;&lt;font style=&quot;font-size: 16px;&quot; face=&quot;Lucida Console&quot;&gt;&amp;nbsp;→ id &amp;amp;= E ;&lt;/font&gt;&lt;/font&gt;&lt;/div&gt;&lt;div style=&quot;text-align: left; font-size: 16px;&quot;&gt;&lt;font style=&quot;font-size: 16px;&quot;&gt;&lt;span style=&quot;background-color: initial;&quot;&gt;&lt;font style=&quot;font-size: 16px;&quot; face=&quot;Lucida Console&quot;&gt;&lt;font color=&quot;#ff0080&quot;&gt;27 : &lt;/font&gt;S&lt;/font&gt;&lt;/span&gt;&lt;span style=&quot;background-color: initial;&quot;&gt;&lt;font style=&quot;font-size: 16px;&quot; face=&quot;Lucida Console&quot;&gt;&amp;nbsp;→ id ( L ) ;&lt;/font&gt;&lt;/span&gt;&lt;/font&gt;&lt;/div&gt;&lt;div style=&quot;text-align: left; font-size: 16px;&quot;&gt;&lt;font style=&quot;font-size: 16px;&quot;&gt;&lt;span style=&quot;background-color: initial;&quot;&gt;&lt;font style=&quot;font-size: 16px;&quot; face=&quot;Lucida Console&quot;&gt;&lt;font color=&quot;#ff0080&quot;&gt;28 :&lt;/font&gt; S&lt;/font&gt;&lt;/span&gt;&lt;span style=&quot;background-color: initial;&quot;&gt;&lt;font style=&quot;font-size: 16px;&quot; face=&quot;Lucida Console&quot;&gt;&amp;nbsp;→ output E ;&lt;/font&gt;&lt;/span&gt;&lt;/font&gt;&lt;/div&gt;&lt;div style=&quot;text-align: left; font-size: 16px;&quot;&gt;&lt;font style=&quot;font-size: 16px;&quot;&gt;&lt;span style=&quot;background-color: initial;&quot;&gt;&lt;font style=&quot;font-size: 16px;&quot; face=&quot;Lucida Console&quot;&gt;&lt;font color=&quot;#ff0080&quot;&gt;29 :&lt;/font&gt; S&lt;/font&gt;&lt;/span&gt;&lt;span style=&quot;background-color: initial;&quot;&gt;&lt;font style=&quot;font-size: 16px;&quot; face=&quot;Lucida Console&quot;&gt;&amp;nbsp;→ input id ;&lt;/font&gt;&lt;/span&gt;&lt;/font&gt;&lt;/div&gt;&lt;div style=&quot;text-align: left; font-size: 16px;&quot;&gt;&lt;font style=&quot;font-size: 16px;&quot;&gt;&lt;span style=&quot;background-color: initial;&quot;&gt;&lt;font style=&quot;font-size: 16px;&quot; face=&quot;Lucida Console&quot;&gt;&lt;font color=&quot;#ff0080&quot;&gt;30 :&lt;/font&gt; S&lt;/font&gt;&lt;/span&gt;&lt;span style=&quot;background-color: initial;&quot;&gt;&lt;font style=&quot;font-size: 16px;&quot; face=&quot;Lucida Console&quot;&gt;&amp;nbsp;→ return X ;&lt;/font&gt;&lt;/span&gt;&lt;/font&gt;&lt;/div&gt;&lt;div style=&quot;text-align: left; font-size: 16px;&quot;&gt;&lt;font style=&quot;font-size: 16px;&quot;&gt;&lt;span style=&quot;background-color: initial;&quot;&gt;&lt;font style=&quot;font-size: 16px;&quot; face=&quot;Lucida Console&quot;&gt;&lt;font color=&quot;#ff0080&quot;&gt;31 :&lt;/font&gt; L&lt;/font&gt;&lt;/span&gt;&lt;span style=&quot;background-color: initial;&quot;&gt;&lt;font style=&quot;font-size: 16px;&quot; face=&quot;Lucida Console&quot;&gt;&amp;nbsp;→ EQ&lt;/font&gt;&lt;/span&gt;&lt;/font&gt;&lt;/div&gt;&lt;div style=&quot;text-align: left; font-size: 16px;&quot;&gt;&lt;span style=&quot;background-color: initial;&quot;&gt;&lt;font face=&quot;Lucida Console&quot;&gt;&lt;font color=&quot;#ff0080&quot;&gt;32 :&lt;/font&gt; L&lt;/font&gt;&lt;/span&gt;&lt;span style=&quot;background-color: initial;&quot;&gt;&lt;font face=&quot;Lucida Console&quot;&gt;&amp;nbsp;→&amp;nbsp;&lt;/font&gt;&lt;/span&gt;&lt;span style=&quot;font-family: &amp;quot;Lucida Console&amp;quot;; background-color: initial;&quot;&gt;λ&lt;/span&gt;&lt;/div&gt;&lt;div style=&quot;text-align: left; font-size: 16px;&quot;&gt;&lt;font style=&quot;font-size: 16px;&quot;&gt;&lt;span style=&quot;background-color: initial;&quot;&gt;&lt;font style=&quot;font-size: 16px;&quot; face=&quot;Lucida Console&quot;&gt;&lt;font color=&quot;#ff0080&quot;&gt;33 :&lt;/font&gt; Q&lt;/font&gt;&lt;/span&gt;&lt;span style=&quot;background-color: initial;&quot;&gt;&lt;font style=&quot;font-size: 16px;&quot; face=&quot;Lucida Console&quot;&gt;&amp;nbsp;→ , EQ&lt;/font&gt;&lt;/span&gt;&lt;/font&gt;&lt;/div&gt;&lt;div style=&quot;text-align: left; font-size: 16px;&quot;&gt;&lt;font style=&quot;font-size: 16px;&quot;&gt;&lt;span style=&quot;background-color: initial;&quot;&gt;&lt;font face=&quot;Lucida Console&quot;&gt;&lt;font color=&quot;#ff0080&quot;&gt;34 :&lt;/font&gt; Q&lt;/font&gt;&lt;/span&gt;&lt;span style=&quot;background-color: initial;&quot;&gt;&lt;font face=&quot;Lucida Console&quot;&gt;&amp;nbsp;→&amp;nbsp;&lt;/font&gt;&lt;/span&gt;&lt;span style=&quot;background-color: initial;&quot;&gt;&lt;font style=&quot;font-size: 16px;&quot; face=&quot;Lucida Console&quot;&gt;λ&lt;/font&gt;&lt;/span&gt;&lt;/font&gt;&lt;/div&gt;&lt;div style=&quot;text-align: left; font-size: 16px;&quot;&gt;&lt;font style=&quot;font-size: 16px;&quot;&gt;&lt;span style=&quot;background-color: initial;&quot;&gt;&lt;font style=&quot;font-size: 16px;&quot; face=&quot;Lucida Console&quot;&gt;&lt;font color=&quot;#ff0080&quot;&gt;35 :&lt;/font&gt; X&lt;/font&gt;&lt;/span&gt;&lt;span style=&quot;background-color: initial;&quot;&gt;&lt;font style=&quot;font-size: 16px;&quot; face=&quot;Lucida Console&quot;&gt;&amp;nbsp;→ E&lt;/font&gt;&lt;/span&gt;&lt;/font&gt;&lt;/div&gt;&lt;div style=&quot;text-align: left; font-size: 16px;&quot;&gt;&lt;span style=&quot;background-color: initial;&quot;&gt;&lt;font face=&quot;Lucida Console&quot;&gt;&lt;font color=&quot;#ff0080&quot;&gt;36 : &lt;/font&gt;X&lt;/font&gt;&lt;/span&gt;&lt;span style=&quot;background-color: initial;&quot;&gt;&lt;font face=&quot;Lucida Console&quot;&gt;&amp;nbsp;→&amp;nbsp;&lt;/font&gt;&lt;/span&gt;&lt;span style=&quot;font-family: &amp;quot;Lucida Console&amp;quot;; background-color: initial;&quot;&gt;λ&lt;/span&gt;&lt;/div&gt;&lt;div style=&quot;padding-bottom: 5px;&quot;&gt;&lt;span style=&quot;background-color: initial; font-size: 18px;&quot;&gt;&lt;font color=&quot;#0000ff&quot; face=&quot;Lucida Console&quot;&gt;Expresiones&lt;/font&gt;&lt;/span&gt;&lt;/div&gt;&lt;div style=&quot;text-align: left; font-size: 16px;&quot;&gt;&lt;font style=&quot;font-size: 16px; background-color: rgb(153, 255, 204);&quot;&gt;&lt;font style=&quot;font-size: 16px;&quot; face=&quot;Lucida Console&quot;&gt;&lt;font color=&quot;#ff0080&quot;&gt;37 :&lt;/font&gt; E&lt;/font&gt;&lt;font style=&quot;font-size: 16px;&quot; face=&quot;Lucida Console&quot;&gt;&amp;nbsp;→ E &amp;amp;&amp;amp; R&lt;/font&gt;&lt;/font&gt;&lt;/div&gt;&lt;div style=&quot;text-align: left; font-size: 16px;&quot;&gt;&lt;font style=&quot;background-color: initial;&quot; face=&quot;Lucida Console&quot;&gt;&lt;font color=&quot;#ff0080&quot;&gt;38 :&lt;/font&gt; E&lt;/font&gt;&lt;span style=&quot;background-color: initial;&quot;&gt;&lt;font face=&quot;Lucida Console&quot;&gt;&amp;nbsp;→&amp;nbsp;&lt;/font&gt;&lt;/span&gt;&lt;span style=&quot;font-family: &amp;quot;Lucida Console&amp;quot;; background-color: initial;&quot;&gt;R&lt;/span&gt;&lt;/div&gt;&lt;div style=&quot;text-align: left; font-size: 16px;&quot;&gt;&lt;font style=&quot;font-size: 16px; background-color: rgb(153, 255, 204);&quot;&gt;&lt;font style=&quot;font-size: 16px;&quot; face=&quot;Lucida Console&quot;&gt;&lt;font style=&quot;&quot; color=&quot;#ff0080&quot;&gt;39 :&lt;/font&gt; R&lt;/font&gt;&lt;font style=&quot;font-size: 16px;&quot; face=&quot;Lucida Console&quot;&gt;&amp;nbsp;→ R == U&lt;/font&gt;&lt;/font&gt;&lt;/div&gt;&lt;div style=&quot;text-align: left; font-size: 16px;&quot;&gt;&lt;span style=&quot;background-color: initial;&quot;&gt;&lt;font face=&quot;Lucida Console&quot;&gt;&lt;font color=&quot;#ff0080&quot;&gt;40 :&lt;/font&gt; R&lt;/font&gt;&lt;/span&gt;&lt;span style=&quot;background-color: initial;&quot;&gt;&lt;font face=&quot;Lucida Console&quot;&gt;&amp;nbsp;→ U&lt;/font&gt;&lt;/span&gt;&lt;/div&gt;&lt;div style=&quot;text-align: left; font-size: 16px;&quot;&gt;&lt;font style=&quot;font-size: 16px; background-color: rgb(153, 255, 204);&quot;&gt;&lt;font style=&quot;font-size: 16px;&quot; face=&quot;Lucida Console&quot;&gt;&lt;font style=&quot;&quot; color=&quot;#ff0080&quot;&gt;41 :&lt;/font&gt; U&lt;/font&gt;&lt;font style=&quot;font-size: 16px;&quot; face=&quot;Lucida Console&quot;&gt;&amp;nbsp;→ U + V&lt;/font&gt;&lt;/font&gt;&lt;/div&gt;&lt;div style=&quot;text-align: left; font-size: 16px;&quot;&gt;&lt;font style=&quot;font-size: 16px;&quot;&gt;&lt;span style=&quot;background-color: initial;&quot;&gt;&lt;font face=&quot;Lucida Console&quot;&gt;&lt;font color=&quot;#ff0080&quot;&gt;42 :&lt;/font&gt; U&lt;/font&gt;&lt;/span&gt;&lt;span style=&quot;background-color: initial;&quot;&gt;&lt;font face=&quot;Lucida Console&quot;&gt;&amp;nbsp;→&amp;nbsp;&lt;/font&gt;&lt;/span&gt;&lt;span style=&quot;background-color: initial;&quot;&gt;&lt;font style=&quot;font-size: 16px;&quot; face=&quot;Lucida Console&quot;&gt;V&lt;/font&gt;&lt;/span&gt;&lt;/font&gt;&lt;/div&gt;&lt;div style=&quot;text-align: left; font-size: 16px;&quot;&gt;&lt;font style=&quot;font-size: 16px;&quot;&gt;&lt;span style=&quot;background-color: initial;&quot;&gt;&lt;font style=&quot;font-size: 16px;&quot; face=&quot;Lucida Console&quot;&gt;&lt;font color=&quot;#ff0080&quot;&gt;43 :&lt;/font&gt; V&lt;/font&gt;&lt;/span&gt;&lt;span style=&quot;background-color: initial;&quot;&gt;&lt;font style=&quot;font-size: 16px;&quot; face=&quot;Lucida Console&quot;&gt;&amp;nbsp;→ id&lt;/font&gt;&lt;/span&gt;&lt;/font&gt;&lt;/div&gt;&lt;div style=&quot;text-align: left; font-size: 16px;&quot;&gt;&lt;font style=&quot;font-size: 16px;&quot;&gt;&lt;span style=&quot;background-color: initial;&quot;&gt;&lt;font face=&quot;Lucida Console&quot;&gt;&lt;font color=&quot;#ff0080&quot;&gt;44 :&lt;/font&gt; V&lt;/font&gt;&lt;/span&gt;&lt;span style=&quot;background-color: initial;&quot;&gt;&lt;font face=&quot;Lucida Console&quot;&gt;&amp;nbsp;→&amp;nbsp;&lt;/font&gt;&lt;/span&gt;&lt;span style=&quot;background-color: initial;&quot;&gt;&lt;font style=&quot;font-size: 16px;&quot; face=&quot;Lucida Console&quot;&gt;&lt;/font&gt;&lt;/span&gt;&lt;/font&gt;&lt;span style=&quot;font-family: &amp;quot;Lucida Console&amp;quot;; background-color: initial;&quot;&gt;( E )&lt;/span&gt;&lt;/div&gt;&lt;div style=&quot;text-align: left; font-size: 16px;&quot;&gt;&lt;font style=&quot;font-size: 16px;&quot;&gt;&lt;span style=&quot;background-color: initial;&quot;&gt;&lt;font face=&quot;Lucida Console&quot;&gt;&lt;font color=&quot;#ff0080&quot;&gt;45 :&lt;/font&gt; V&lt;/font&gt;&lt;/span&gt;&lt;span style=&quot;background-color: initial;&quot;&gt;&lt;font face=&quot;Lucida Console&quot;&gt;&amp;nbsp;→&amp;nbsp;&lt;/font&gt;&lt;/span&gt;&lt;span style=&quot;background-color: initial;&quot;&gt;&lt;font face=&quot;Lucida Console&quot;&gt;&lt;/font&gt;&lt;/span&gt;&lt;/font&gt;&lt;span style=&quot;font-family: &amp;quot;Lucida Console&amp;quot;; background-color: initial;&quot;&gt;id ( L )&lt;/span&gt;&lt;/div&gt;&lt;div style=&quot;text-align: left; font-size: 16px;&quot;&gt;&lt;font style=&quot;font-size: 16px;&quot;&gt;&lt;span style=&quot;background-color: initial;&quot;&gt;&lt;font face=&quot;Lucida Console&quot;&gt;&lt;font color=&quot;#ff0080&quot;&gt;46 :&lt;/font&gt; V&lt;/font&gt;&lt;/span&gt;&lt;span style=&quot;background-color: initial;&quot;&gt;&lt;font face=&quot;Lucida Console&quot;&gt;&amp;nbsp;→&amp;nbsp;&lt;/font&gt;&lt;/span&gt;&lt;span style=&quot;background-color: initial;&quot;&gt;&lt;font face=&quot;Lucida Console&quot;&gt;&lt;/font&gt;&lt;/span&gt;&lt;/font&gt;&lt;span style=&quot;font-family: &amp;quot;Lucida Console&amp;quot;; background-color: initial;&quot;&gt;ent&lt;/span&gt;&lt;/div&gt;&lt;div style=&quot;text-align: left; font-size: 16px;&quot;&gt;&lt;font style=&quot;font-size: 16px;&quot;&gt;&lt;span style=&quot;background-color: initial;&quot;&gt;&lt;font face=&quot;Lucida Console&quot;&gt;&lt;font color=&quot;#ff0080&quot;&gt;47 :&lt;/font&gt; V&lt;/font&gt;&lt;/span&gt;&lt;span style=&quot;background-color: initial;&quot;&gt;&lt;font face=&quot;Lucida Console&quot;&gt;&amp;nbsp;→&amp;nbsp;&lt;/font&gt;&lt;/span&gt;&lt;span style=&quot;background-color: initial;&quot;&gt;&lt;font face=&quot;Lucida Console&quot;&gt;&lt;/font&gt;&lt;/span&gt;&lt;/font&gt;&lt;span style=&quot;font-family: &amp;quot;Lucida Console&amp;quot;; background-color: initial;&quot;&gt;cad&lt;/span&gt;&lt;/div&gt;&lt;div style=&quot;text-align: left; font-size: 16px;&quot;&gt;&lt;span style=&quot;background-color: initial;&quot;&gt;&lt;font face=&quot;Lucida Console&quot;&gt;&lt;font color=&quot;#ff0080&quot;&gt;48 :&lt;/font&gt; V&lt;/font&gt;&lt;/span&gt;&lt;span style=&quot;background-color: initial;&quot;&gt;&lt;font face=&quot;Lucida Console&quot;&gt;&amp;nbsp;→&amp;nbsp;&lt;/font&gt;&lt;/span&gt;&lt;span style=&quot;font-family: &amp;quot;Lucida Console&amp;quot;; background-color: initial;&quot;&gt;&lt;/span&gt;&lt;span style=&quot;font-family: &amp;quot;Lucida Console&amp;quot;; background-color: initial;&quot;&gt;bool&lt;/span&gt;&lt;/div&gt;&lt;p&gt;&lt;/p&gt;" style="text;html=1;align=center;verticalAlign=middle;whiteSpace=wrap;rounded=0;fontSize=15;" vertex="1" parent="1">
          <mxGeometry x="210" y="30" width="410" height="1110" as="geometry" />
        </mxCell>
      </root>
    </mxGraphModel>
  </diagram>
</mxfile>
